<?xml version="1.0" encoding="UTF-8"?>
<svg version="1.1" xmlns="http://www.w3.org/2000/svg" width="578" height="578">
<path d="M0 0 C190.74 0 381.48 0 578 0 C578 190.74 578 381.48 578 578 C387.26 578 196.52 578 0 578 C0 387.26 0 196.52 0 0 Z " fill="#FCFCFD" transform="translate(0,0)"/>
<path d="M0 0 C0.33 0 0.66 0 1 0 C1 155.76 1 311.52 1 472 C-189.74 472 -380.48 472 -577 472 C-577 466.72 -577 461.44 -577 456 C-567.5 451 -567.5 451 -563 451 C-563 450.34 -563 449.68 -563 449 C-561.02 448.67 -559.04 448.34 -557 448 C-557 447.34 -557 446.68 -557 446 C-555.865625 445.46890625 -554.73125 444.9378125 -553.5625 444.390625 C-552.04164194 443.67713603 -550.52081001 442.96359138 -549 442.25 C-548.25621094 441.90195312 -547.51242187 441.55390625 -546.74609375 441.1953125 C-542.40769535 439.15815151 -538.10588952 437.0684366 -533.8425293 434.87817383 C-531.2332697 433.6345662 -528.53661567 432.69540421 -525.81640625 431.7265625 C-523.77861916 430.97081807 -523.77861916 430.97081807 -521.25 429.3125 C-519 428 -519 428 -515 428 C-515 427.34 -515 426.68 -515 426 C-512.36 425.34 -509.72 424.68 -507 424 C-507 423.34 -507 422.68 -507 422 C-504.36 421.34 -501.72 420.68 -499 420 C-499 419.34 -499 418.68 -499 418 C-497.58774074 417.32404685 -496.16997095 416.65959941 -494.75 416 C-493.96109375 415.62875 -493.1721875 415.2575 -492.359375 414.875 C-490 414 -490 414 -486 414 C-486 413.34 -486 412.68 -486 412 C-480.39770858 409.14812932 -474.79553975 406.4341267 -469 404 C-468.278125 403.608125 -467.55625 403.21625 -466.8125 402.8125 C-465 402 -465 402 -461 402 C-461 401.34 -461 400.68 -461 400 C-459.99066406 399.57976562 -458.98132813 399.15953125 -457.94140625 398.7265625 C-452.95905428 396.59323846 -448.20131738 394.03693308 -443.40234375 391.5234375 C-440.17793913 390.07967424 -437.49228362 389.39334701 -434 389 C-434 388.34 -434 387.68 -434 387 C-431.6707957 385.86572603 -429.33719515 384.74259616 -427 383.625 C-426.35160156 383.30789063 -425.70320312 382.99078125 -425.03515625 382.6640625 C-420.42295167 380.47212369 -415.98800719 379.10226052 -411 378 C-411 377.34 -411 376.68 -411 376 C-389.73333333 366 -389.73333333 366 -386 366 C-386 365.34 -386 364.68 -386 364 C-383.921188 362.99063464 -381.8367638 361.99282154 -379.75 361 C-378.00976562 360.1646875 -378.00976562 360.1646875 -376.234375 359.3125 C-373 358 -373 358 -369 358 C-369 357.34 -369 356.68 -369 356 C-367.53240234 355.43732422 -367.53240234 355.43732422 -366.03515625 354.86328125 C-359.35602264 352.26664552 -352.92882384 349.70683626 -346.83203125 345.8828125 C-345 345 -345 345 -341 345 C-341 344.34 -341 343.68 -341 343 C-336.05 341.515 -336.05 341.515 -331 340 C-331 339.34 -331 338.68 -331 338 C-328.921188 336.99063464 -326.8367638 335.99282154 -324.75 335 C-323.00976562 334.1646875 -323.00976562 334.1646875 -321.234375 333.3125 C-318 332 -318 332 -314 332 C-314 331.34 -314 330.68 -314 330 C-312.90042969 329.54882812 -311.80085938 329.09765625 -310.66796875 328.6328125 C-304.55871297 325.56274024 -300.05201614 320.70469785 -295.3125 315.875 C-294.82889008 315.38679779 -294.34528015 314.89859558 -293.84701538 314.39559937 C-285.17933569 305.61489486 -277.61387147 296.42939111 -271 286 C-270.50435547 285.23091309 -270.00871094 284.46182617 -269.49804688 283.66943359 C-262.86128712 273.24972077 -258.01188805 262.94739057 -254.625 251.06542969 C-254.21111458 249.6976677 -253.75283556 248.34250398 -253.25 247.00488281 C-248.82059102 235.15067704 -248.68674663 222.44314538 -248.79418945 209.94628906 C-248.8126041 207.73751344 -248.81469693 205.52915755 -248.81445312 203.3203125 C-248.83441407 195.50478285 -249.09280762 187.77116236 -250 180 C-247.30866231 181.34566884 -247.18774346 182.5907878 -246.125 185.375 C-245.77824219 186.27347656 -245.43148438 187.17195312 -245.07421875 188.09765625 C-243.67875535 191.86794463 -242.33565279 195.65563546 -241.02734375 199.45703125 C-240.05222214 202.06173181 -240.05222214 202.06173181 -238.48828125 204.515625 C-237.01478573 206.97531831 -236.13787232 209.21943804 -235.25 211.9375 C-233.65313853 216.49469696 -231.7031803 220.7725558 -229.5 225.0625 C-227.03280076 229.86680624 -224.82104734 234.68261705 -222.88671875 239.7265625 C-222.03237632 241.91699112 -221.09926158 244.04810109 -220.125 246.1875 C-216.779732 253.60815401 -213.78593188 261.22000586 -210.9375 268.84375 C-209.76137731 271.54883218 -208.52436921 272.51507693 -206 274 C-203.85266073 274.70514846 -203.85266073 274.70514846 -202 275 C-202 274.34 -202 273.68 -202 273 C-198.91190305 271.23537317 -197.76687864 271 -194 271 C-194 270.34 -194 269.68 -194 269 C-193.28714844 268.75765625 -192.57429688 268.5153125 -191.83984375 268.265625 C-185.24330414 265.96326806 -185.24330414 265.96326806 -179.0625 262.75 C-176 261 -176 261 -172 261 C-172 260.34 -172 259.68 -172 259 C-169.8765984 258.16260219 -167.7512272 257.33019717 -165.625 256.5 C-164.44164062 256.0359375 -163.25828125 255.571875 -162.0390625 255.09375 C-159 254 -159 254 -157 254 C-157 253.34 -157 252.68 -157 252 C-154.8765984 251.16260219 -152.7512272 250.33019717 -150.625 249.5 C-149.44164062 249.0359375 -148.25828125 248.571875 -147.0390625 248.09375 C-144 247 -144 247 -142 247 C-142 246.34 -142 245.68 -142 245 C-140.54293274 244.49632243 -139.08429904 243.99717444 -137.625 243.5 C-136.81289063 243.2215625 -136.00078125 242.943125 -135.1640625 242.65625 C-133 242 -133 242 -131 242 C-131 241.34 -131 240.68 -131 240 C-130.12601562 239.65388672 -130.12601562 239.65388672 -129.234375 239.30078125 C-123.27715412 236.93100628 -117.36328907 234.47501543 -111.46875 231.953125 C-109 231 -109 231 -107 231 C-107 230.34 -107 229.68 -107 229 C-103.25523997 227.32137605 -99.50339824 225.6592083 -95.75 224 C-94.15478516 223.28457031 -94.15478516 223.28457031 -92.52734375 222.5546875 C-91.50253906 222.10351562 -90.47773438 221.65234375 -89.421875 221.1875 C-88.47924805 220.76855469 -87.53662109 220.34960938 -86.56542969 219.91796875 C-84 219 -84 219 -80 219 C-78.40383483 215.97083321 -77.19936535 212.91546706 -76.0625 209.6875 C-74.93938405 206.54277534 -73.77987564 203.49811645 -72.4375 200.4375 C-71.27139814 197.64899554 -70.38935726 195.01900043 -69.5625 192.125 C-68.37723059 188.04104064 -66.86453176 184.29493506 -65.08984375 180.4375 C-61.00814766 171.30854531 -57.82710162 161.78245709 -54.58666992 152.33081055 C-53.16823922 148.21970977 -51.68130553 144.1625138 -50.03515625 140.13671875 C-47.75469034 134.51039974 -45.87508614 128.77174954 -44 123 C-41.82369591 116.30106396 -39.57116791 109.70367214 -36.83203125 103.21118164 C-35.98636458 100.96376292 -35.45656657 98.79216743 -35 96.4375 C-34.19761286 92.39716121 -32.75350942 88.97159413 -31.0078125 85.25390625 C-29.68272719 82.29044027 -28.70220941 79.25852384 -27.70703125 76.171875 C-25.9309648 70.71611287 -23.76740119 65.45547402 -21.5 60.1875 C-19.13140887 54.57014642 -17.43316148 48.91907342 -16 43 C-15.34 43 -14.68 43 -14 43 C-13.90203125 42.21496094 -13.8040625 41.42992187 -13.703125 40.62109375 C-13.55359375 39.57050781 -13.4040625 38.51992187 -13.25 37.4375 C-13.11078125 36.40496094 -12.9715625 35.37242187 -12.828125 34.30859375 C-12.02970702 31.11868795 -10.80983787 28.89670437 -9.11425781 26.11303711 C-6.69887242 21.53259 -5.32571631 16.47931849 -3.75 11.5625 C-3.38648438 10.44939453 -3.02296875 9.33628906 -2.6484375 8.18945312 C-1.75872834 5.46179214 -0.87614124 2.73204305 0 0 Z " fill="#503983" transform="translate(577,106)"/>
<path d="M0 0 C190.74 0 381.48 0 578 0 C574.73813317 3.26186683 572.23303486 4.27808751 568 6 C566.906875 6.556875 565.81375 7.11375 564.6875 7.6875 C562 9 562 9 560 9 C560 9.66 560 10.32 560 11 C558.515 11.61875 558.515 11.61875 557 12.25 C553.47758348 13.74935856 550.08839243 15.45265073 546.69921875 17.23046875 C545 18 545 18 543 18 C543 18.66 543 19.32 543 20 C542.13955078 20.36738281 542.13955078 20.36738281 541.26171875 20.7421875 C534.80424225 23.58386912 528.47651892 26.67994351 522.1875 29.875 C521.37563232 30.27315918 520.56376465 30.67131836 519.72729492 31.08154297 C510.4952833 35.84246713 506.94145763 41.02391986 503.6940155 50.90643311 C503.05650368 52.91370149 502.43378479 54.9251564 501.8125 56.9375 C501.38506639 58.28371309 500.95604015 59.62942159 500.52539062 60.97460938 C499.70201674 63.5471792 498.88422323 66.12124408 498.07006836 68.69677734 C497.06836267 71.78896943 495.96734172 74.80951396 494.79321289 77.83813477 C492.77955549 83.32626536 491.08664502 88.93074572 489.3125 94.5 C488.89276022 95.81255824 488.47283977 97.12505873 488.05273438 98.4375 C487.03338287 101.62443803 486.01585746 104.81194685 485 108 C484.34 108 483.68 108 483 108 C482.85304688 108.83917969 482.85304688 108.83917969 482.703125 109.6953125 C480.8655861 119.54832282 478.45792637 129.25480671 474.13671875 138.32421875 C472.19464874 142.89575813 470.7259013 147.63258817 469.19384766 152.35449219 C468.95327637 153.09473633 468.71270508 153.83498047 468.46484375 154.59765625 C468.14954712 155.58004272 468.14954712 155.58004272 467.82788086 156.58227539 C467.1120105 158.67288707 466.34994774 160.73360366 465.56616211 162.79931641 C464.09361198 166.70246509 462.76295138 170.6453434 461.4765625 174.61328125 C461.00808599 176.04110539 460.53932706 177.46883689 460.0703125 178.89648438 C459.34802696 181.10023717 458.62758665 183.30452478 457.91210938 185.51049805 C455.35113576 193.39536893 452.67878612 201.00474856 449.11181641 208.50415039 C446.94601432 213.3660289 445.60344352 218.49719755 444.15234375 223.60742188 C443.79462891 224.80915039 443.79462891 224.80915039 443.4296875 226.03515625 C443.22585449 226.7506665 443.02202148 227.46617676 442.81201172 228.20336914 C442 230 442 230 439 232 C435.9166966 226.40437532 433.81553681 220.69002863 431.85449219 214.63037109 C430.4312243 210.24648872 428.85381702 205.98152386 427.09765625 201.72265625 C425.66630403 198.17229149 424.3347777 194.58757756 423 191 C421.06145134 185.79925058 419.07740434 180.62457806 416.9921875 175.48046875 C415.81629488 172.5407372 414.68993581 169.58364366 413.5625 166.625 C411.97941276 162.49165065 410.34533685 158.39054439 408.625 154.3125 C406.47268541 149.19990413 404.44050275 144.04734449 402.4375 138.875 C401.98250122 137.70046265 401.98250122 137.70046265 401.51831055 136.50219727 C400.93529445 134.99661675 400.35236408 133.49100303 399.76953125 131.98535156 C397.51977464 126.18109371 395.19181534 120.43276095 392.68920898 114.73242188 C388.82575314 105.91887703 388.82575314 105.91887703 387.875 101.25 C387.35127629 97.91615303 387.35127629 97.91615303 384.9375 96.5625 C384.298125 96.376875 383.65875 96.19125 383 96 C382.67 95.67 382.34 95.34 382 95 C376.51930994 94.15681691 372.91978931 96.33467872 368.26953125 98.90625 C366 100 366 100 363 100 C363 100.66 363 101.32 363 102 C361.824375 102.4125 360.64875 102.825 359.4375 103.25 C356.62373724 104.29836152 354.07316791 105.45491072 351.5 107 C347.03395183 109.66323973 342.27067562 112 337 112 C337 112.66 337 113.32 337 114 C334.39869373 115.1734316 331.79431492 116.33892508 329.1875 117.5 C328.08051758 118.00080078 328.08051758 118.00080078 326.95117188 118.51171875 C326.23896484 118.82753906 325.52675781 119.14335938 324.79296875 119.46875 C324.1383667 119.76201172 323.48376465 120.05527344 322.80932617 120.35742188 C321 121 321 121 318 121 C318 121.66 318 122.32 318 123 C317.34773438 123.25394531 316.69546875 123.50789063 316.0234375 123.76953125 C312.1172755 125.30779859 308.30692821 126.84374564 304.5625 128.75 C302 130 302 130 299 130 C299 130.66 299 131.32 299 132 C297.73160474 132.50615298 296.46016898 133.00469099 295.1875 133.5 C294.12595703 133.91765625 294.12595703 133.91765625 293.04296875 134.34375 C291 135 291 135 288 135 C288 135.66 288 136.32 288 137 C286.06532058 137.83986084 284.12714871 138.67168027 282.1875 139.5 C281.10855469 139.9640625 280.02960938 140.428125 278.91796875 140.90625 C276 142 276 142 273 142 C273 142.66 273 143.32 273 144 C271.10667466 144.81832722 269.21022267 145.62942268 267.3125 146.4375 C265.72888672 147.11619141 265.72888672 147.11619141 264.11328125 147.80859375 C261.38027471 148.85447455 258.87957663 149.53520748 256 150 C256 150.66 256 151.32 256 152 C251.545 152.99 251.545 152.99 247 154 C247 154.66 247 155.32 247 156 C245.06532058 156.83986084 243.12714871 157.67168027 241.1875 158.5 C240.10855469 158.9640625 239.02960938 159.428125 237.91796875 159.90625 C235 161 235 161 232 161 C232 161.66 232 162.32 232 163 C230.39850114 163.67305018 228.79368971 164.33822227 227.1875 165 C226.29417969 165.37125 225.40085938 165.7425 224.48046875 166.125 C222 167 222 167 219 167 C219 167.66 219 168.32 219 169 C217.10667466 169.81832722 215.21022267 170.62942268 213.3125 171.4375 C212.25675781 171.88996094 211.20101562 172.34242188 210.11328125 172.80859375 C207.38027471 173.85447455 204.87957663 174.53520748 202 175 C202 175.66 202 176.32 202 177 C199.39869373 178.1734316 196.79431492 179.33892508 194.1875 180.5 C193.44951172 180.83386719 192.71152344 181.16773438 191.95117188 181.51171875 C190.88286133 181.98544922 190.88286133 181.98544922 189.79296875 182.46875 C189.1383667 182.76201172 188.48376465 183.05527344 187.80932617 183.35742188 C186 184 186 184 183 184 C183 184.66 183 185.32 183 186 C181.06532058 186.83986084 179.12714871 187.67168027 177.1875 188.5 C176.10855469 188.9640625 175.02960938 189.428125 173.91796875 189.90625 C171 191 171 191 168 191 C168 191.66 168 192.32 168 193 C166.02 193.33 164.04 193.66 162 194 C162 194.66 162 195.32 162 196 C157.545 196.99 157.545 196.99 153 198 C153 198.66 153 199.32 153 200 C151.43979133 200.65134925 149.87671421 201.29582964 148.3125 201.9375 C147.00732422 202.47697266 147.00732422 202.47697266 145.67578125 203.02734375 C143.11820735 203.9570312 140.6778677 204.54162625 138 205 C138 205.66 138 206.32 138 207 C137.32453125 207.26554688 136.6490625 207.53109375 135.953125 207.8046875 C134.61507812 208.33449219 134.61507812 208.33449219 133.25 208.875 C131.92742187 209.39707031 131.92742187 209.39707031 130.578125 209.9296875 C128.0384159 210.93715443 128.0384159 210.93715443 125.859375 212.1328125 C124 213 124 213 121 213 C121 213.66 121 214.32 121 215 C116.545 215.99 116.545 215.99 112 217 C112 217.66 112 218.32 112 219 C111.03964844 219.37769531 110.07929687 219.75539062 109.08984375 220.14453125 C99.04015782 224.16216183 89.28391149 228.64410334 79.58178711 233.44262695 C78.63956299 233.9037085 77.69733887 234.36479004 76.7265625 234.83984375 C75.46706787 235.46427368 75.46706787 235.46427368 74.18212891 236.10131836 C72 237 72 237 69 237 C69 237.66 69 238.32 69 239 C68.32453125 239.26554688 67.6490625 239.53109375 66.953125 239.8046875 C65.61507812 240.33449219 65.61507812 240.33449219 64.25 240.875 C62.92742188 241.39707031 62.92742188 241.39707031 61.578125 241.9296875 C59.0384159 242.93715443 59.0384159 242.93715443 56.859375 244.1328125 C55 245 55 245 52 245 C52 245.66 52 246.32 52 247 C49.5433053 248.00419637 47.08481647 249.00350501 44.625 250 C43.92632812 250.28617188 43.22765625 250.57234375 42.5078125 250.8671875 C37.2265625 253 37.2265625 253 35 253 C35 253.66 35 254.32 35 255 C34.45214844 255.20753906 33.90429688 255.41507813 33.33984375 255.62890625 C27.11444579 258.04820725 21.08949939 260.78214262 15.09155273 263.71313477 C12.19888086 265.10033247 10.25184588 266 7 266 C7 266.66 7 267.32 7 268 C4 270 4 270 0 270 C0 180.9 0 91.8 0 0 Z " fill="#503883" transform="translate(0,0)"/>
<path d="M0 0 C0.42505846 13.7435568 -1.12714693 26.97021044 -10.4375 37.72265625 C-12.25470631 39.20822241 -13.70868899 39.60000821 -16 40 C-16 40.66 -16 41.32 -16 42 C-20.05943235 44.10489085 -24.05542642 46.05938395 -28.3359375 47.66796875 C-35.52248289 50.5136656 -42.36133006 54.07377063 -49.25 57.5625 C-50.59876806 58.24191432 -51.94772534 58.92095314 -53.296875 59.59960938 C-55.77364467 60.84608163 -58.24906123 62.09510453 -60.72363281 63.34594727 C-61.80483398 63.89178467 -62.88603516 64.43762207 -64 65 C-65.60246582 65.84872681 -65.60246582 65.84872681 -67.23730469 66.71459961 C-70 68 -70 68 -73 68 C-73 68.66 -73 69.32 -73 70 C-73.65226563 70.25394531 -74.30453125 70.50789063 -74.9765625 70.76953125 C-78.89665407 72.31328413 -82.72889336 73.86444668 -86.5 75.75 C-89 77 -89 77 -91 77 C-91 77.66 -91 78.32 -91 79 C-92.56020867 79.65134925 -94.12328579 80.29582964 -95.6875 80.9375 C-96.99267578 81.47697266 -96.99267578 81.47697266 -98.32421875 82.02734375 C-100.88179265 82.9570312 -103.3221323 83.54162625 -106 84 C-106 84.66 -106 85.32 -106 86 C-106.50144531 86.17273438 -107.00289063 86.34546875 -107.51953125 86.5234375 C-113.79602948 88.85440277 -119.61112295 91.84291077 -125.5 95 C-131.0487616 97.97228414 -136.48554538 100.75802382 -142.3984375 102.94140625 C-146.13105408 104.46023372 -149.7108346 106.25822712 -153.3125 108.0625 C-153.99530029 108.40361816 -154.67810059 108.74473633 -155.3815918 109.09619141 C-158.22176782 110.53150027 -160.98673983 111.99197511 -163.7109375 113.640625 C-165.88984166 114.93458174 -167.93689075 115.8224913 -170.3125 116.6875 C-175.93033114 118.85146819 -181.22661902 121.56881546 -186.55395508 124.3581543 C-191.6833462 127 -191.6833462 127 -195 127 C-195 127.66 -195 128.32 -195 129 C-196.22976562 129.50660156 -196.22976562 129.50660156 -197.484375 130.0234375 C-198.56203125 130.46945312 -199.6396875 130.91546875 -200.75 131.375 C-201.81734375 131.81585938 -202.8846875 132.25671875 -203.984375 132.7109375 C-206.89858159 133.90788047 -206.89858159 133.90788047 -209.203125 135.1640625 C-211 136 -211 136 -214 136 C-214 136.66 -214 137.32 -214 138 C-215.22506898 138.65357278 -216.45529516 139.29748233 -217.6875 139.9375 C-218.71423828 140.47697266 -218.71423828 140.47697266 -219.76171875 141.02734375 C-222 142 -222 142 -227 143 C-227 130.13 -227 117.26 -227 104 C-224.03 103.505 -224.03 103.505 -221 103 C-221 102.34 -221 101.68 -221 101 C-218.5433053 99.99580363 -216.08481647 98.99649499 -213.625 98 C-212.92632812 97.71382813 -212.22765625 97.42765625 -211.5078125 97.1328125 C-206.2265625 95 -206.2265625 95 -204 95 C-204 94.34 -204 93.68 -204 93 C-200.09019032 91.1387661 -196.17578377 89.28768699 -192.25683594 87.44580078 C-190.92480234 86.81802728 -189.59405587 86.18751505 -188.26464844 85.55419922 C-186.35164255 84.64344828 -184.43419797 83.74270262 -182.515625 82.84375 C-180.78747559 82.02680664 -180.78747559 82.02680664 -179.02441406 81.19335938 C-176 80 -176 80 -172 80 C-172 79.34 -172 78.68 -172 78 C-169.2959195 76.67807201 -166.58730732 75.36735179 -163.875 74.0625 C-162.73417969 73.50272461 -162.73417969 73.50272461 -161.5703125 72.93164062 C-157.36949291 70.92176574 -153.69579236 69.47257974 -149 69 C-149 68.34 -149 67.68 -149 67 C-148.04480469 66.63648438 -147.08960938 66.27296875 -146.10546875 65.8984375 C-138.98583591 63.14582101 -132.2400079 60.20494943 -125.58984375 56.42578125 C-122.1683261 54.54214031 -118.63425526 52.98970504 -115.06640625 51.40625 C-111.41518328 49.7318038 -107.83502262 47.93576936 -104.25 46.125 C-98.81330987 43.39203843 -93.36728941 40.68225886 -87.875 38.0625 C-86.69679687 37.49660156 -85.51859375 36.93070312 -84.3046875 36.34765625 C-81.14932327 35.06089424 -78.37142782 34.40477629 -75 34 C-75 33.34 -75 32.68 -75 32 C-72.00596164 30.52919673 -69.00380994 29.07572895 -66 27.625 C-64.74123047 27.00625 -64.74123047 27.00625 -63.45703125 26.375 C-58.34418929 23.9176651 -53.55383247 22.16990452 -48 21 C-48 20.34 -48 19.68 -48 19 C-45.95900065 18.2066145 -43.9171691 17.4153697 -41.875 16.625 C-40.73804688 16.18414062 -39.60109375 15.74328125 -38.4296875 15.2890625 C-35.30717487 14.11545297 -32.17184369 13.03157226 -29 12 C-29 11.34 -29 10.68 -29 10 C-27.02 9.67 -25.04 9.34 -23 9 C-23 8.34 -23 7.68 -23 7 C-20.91870896 6.01649975 -18.83488641 5.03835542 -16.75 4.0625 C-15.58984375 3.51722656 -14.4296875 2.97195313 -13.234375 2.41015625 C-8.52413948 0.35653907 -5.15299193 -0.11711345 0 0 Z " fill="#543D87" transform="translate(227,344)"/>
<path d="M0 0 C4.27921281 4.08246739 5.37632735 8.76165298 6.75 14.3125 C6.97042969 15.12912109 7.19085938 15.94574219 7.41796875 16.78710938 C8.75570641 22.00096268 9.22281835 26.62141268 9 32 C-11.97938144 43 -11.97938144 43 -19 43 C-19 43.66 -19 44.32 -19 45 C-19.65484375 45.2278418 -20.3096875 45.45568359 -20.984375 45.69042969 C-29.21132393 48.60995076 -37.13771072 52.06718161 -45.09765625 55.640625 C-46.07605469 56.07375 -47.05445313 56.506875 -48.0625 56.953125 C-48.94035156 57.34661133 -49.81820312 57.74009766 -50.72265625 58.14550781 C-53 59 -53 59 -56 59 C-56.33 59.99 -56.66 60.98 -57 62 C-59.5703125 63.03515625 -59.5703125 63.03515625 -63.125 64.0625 C-71.4844139 66.60489317 -79.36208761 70.10511845 -87.31689453 73.69750977 C-88.26935059 74.12346436 -89.22180664 74.54941895 -90.203125 74.98828125 C-91.05551758 75.37540283 -91.90791016 75.76252441 -92.78613281 76.16137695 C-95 77 -95 77 -98 77 C-98 77.66 -98 78.32 -98 79 C-102.455 79.99 -102.455 79.99 -107 81 C-107 81.66 -107 82.32 -107 83 C-108.76858691 83.67260351 -110.53996016 84.33788395 -112.3125 85 C-113.29863281 85.37125 -114.28476563 85.7425 -115.30078125 86.125 C-118 87 -118 87 -121 87 C-121 87.66 -121 88.32 -121 89 C-121.95712891 89.16435547 -121.95712891 89.16435547 -122.93359375 89.33203125 C-123.75988281 89.49058594 -124.58617187 89.64914062 -125.4375 89.8125 C-126.26121094 89.96332031 -127.08492188 90.11414063 -127.93359375 90.26953125 C-128.95646484 90.63111328 -128.95646484 90.63111328 -130 91 C-130.495 92.485 -130.495 92.485 -131 94 C-132.8984375 94.7734375 -132.8984375 94.7734375 -135.375 95.375 C-140.43446749 96.73632435 -144.95053213 98.71831711 -149.65234375 101.01171875 C-152 102 -152 102 -155 102 C-155 102.66 -155 103.32 -155 104 C-158.465 104.495 -158.465 104.495 -162 105 C-162 105.66 -162 106.32 -162 107 C-163.76858691 107.67260351 -165.53996016 108.33788395 -167.3125 109 C-168.79169922 109.556875 -168.79169922 109.556875 -170.30078125 110.125 C-173 111 -173 111 -176 111 C-176 111.66 -176 112.32 -176 113 C-176.95712891 113.16435547 -176.95712891 113.16435547 -177.93359375 113.33203125 C-178.75988281 113.49058594 -179.58617187 113.64914062 -180.4375 113.8125 C-181.26121094 113.96332031 -182.08492187 114.11414063 -182.93359375 114.26953125 C-183.95646484 114.63111328 -183.95646484 114.63111328 -185 115 C-185.33 115.99 -185.66 116.98 -186 118 C-188.36111162 118.81916117 -190.57696413 119.44260962 -193 120 C-194.47948609 120.37373778 -195.95866055 120.74871167 -197.4375 121.125 C-198.613125 121.41375 -199.78875 121.7025 -201 122 C-201.71066049 96.02141112 -201.71066049 96.02141112 -195.73266602 89.45996094 C-192.04005339 86.34853026 -187.64852914 84.43120136 -183.3125 82.375 C-182.36955078 81.9109375 -181.42660156 81.446875 -180.45507812 80.96875 C-175.08366094 78.35502947 -169.66950207 75.99635564 -164.08276367 73.88134766 C-161.76020727 72.9748971 -161.76020727 72.9748971 -159 71 C-157.68 71 -156.36 71 -155 71 C-155 70.34 -155 69.68 -155 69 C-151.71428296 67.38344173 -148.42043483 65.78414261 -145.125 64.1875 C-144.2071875 63.73568359 -143.289375 63.28386719 -142.34375 62.81835938 C-136.35109147 59.92753466 -130.43446606 57.69737682 -124 56 C-124 55.34 -124 54.68 -124 54 C-123.16597656 53.69707031 -122.33195312 53.39414062 -121.47265625 53.08203125 C-115.30855237 50.78726176 -109.6098954 48.33785818 -103.9453125 45.00390625 C-101.35955274 43.66948806 -98.88496281 43.22192022 -96 43 C-96 42.34 -96 41.68 -96 41 C-85.35101351 36.12804054 -85.35101351 36.12804054 -81.3125 34.4375 C-78.8119084 33.35233761 -76.4667444 32.20485364 -74.0625 30.9375 C-70.12911264 28.92847045 -66.31122439 27.9238338 -62 27 C-62 26.34 -62 25.68 -62 25 C-61.48203857 24.78907715 -60.96407715 24.5781543 -60.43041992 24.36083984 C-47.04774853 18.92898122 -47.04774853 18.92898122 -34.32421875 12.12890625 C-31.56930253 10.79080409 -29.02509395 10.3797737 -26 10 C-26 9.34 -26 8.68 -26 8 C-23.96023786 7.03761964 -21.91809954 6.08027473 -19.875 5.125 C-18.73804688 4.59132812 -17.60109375 4.05765625 -16.4296875 3.5078125 C-10.87652745 1.06644601 -6.13275137 -0.79498629 0 0 Z " fill="#533D86" transform="translate(291,209)"/>
<path d="M0 0 C3.80014045 1.90007022 4.62447654 7.16657396 6 11 C6.73646037 13.32394162 7.38437045 15.64008674 8 18 C5.7522025 15.94766315 4.9977758 14.99332739 4 12 C3.67 20.91 3.34 29.82 3 39 C2.67 39 2.34 39 2 39 C1.97494385 38.20940186 1.9498877 37.41880371 1.92407227 36.60424805 C1.80685565 32.96521698 1.68470755 29.32636675 1.5625 25.6875 C1.52318359 24.44419922 1.48386719 23.20089844 1.44335938 21.91992188 C1.19298646 14.58206944 0.76882404 7.3024134 0 0 Z " fill="#8B7EAC" transform="translate(327,286)"/>
<path d="M0 0 C0 4.60756842 -2.93058816 6.4827971 -6.0625 9.625 C-6.62388672 10.223125 -7.18527344 10.82125 -7.76367188 11.4375 C-11.74367902 15.45844437 -14.3200578 16.81187453 -20 17 C-19.01 16.34 -18.02 15.68 -17 15 C-10.66274391 10.62700654 -5.3255341 5.54743135 0 0 Z " fill="#8271A7" transform="translate(283,420)"/>
<path d="M0 0 C-1.44077046 3.36179774 -3.24750021 5.59156268 -6 8 C-6.66 8 -7.32 8 -8 8 C-6.48291727 4.46014029 -4.24676932 0 0 0 Z " fill="#D5D0E3" transform="translate(516,33)"/>
<path d="M0 0 C0.33 0 0.66 0 1 0 C1 2.64 1 5.28 1 8 C-0.98 8.99 -0.98 8.99 -3 10 C-2.01 6.7 -1.02 3.4 0 0 Z " fill="#63508E" transform="translate(577,106)"/>
<path d="M0 0 C0.99 0.495 0.99 0.495 2 1 C2.73075648 3.3140622 3.40138258 5.64828869 4 8 C3.01 8.99 2.02 9.98 1 11 C0.67 7.37 0.34 3.74 0 0 Z " fill="#A298BB" transform="translate(327,286)"/>
</svg>
